<?xml version="1.0" encoding="UTF-8" standalone="no"?>
<svg
   xmlns:dc="http://purl.org/dc/elements/1.1/"
   xmlns:cc="http://creativecommons.org/ns#"
   xmlns:rdf="http://www.w3.org/1999/02/22-rdf-syntax-ns#"
   xmlns:svg="http://www.w3.org/2000/svg"
   xmlns="http://www.w3.org/2000/svg"
   xmlns:sodipodi="http://sodipodi.sourceforge.net/DTD/sodipodi-0.dtd"
   xmlns:inkscape="http://www.inkscape.org/namespaces/inkscape"
   width="26"
   height="26"
   viewBox="0 0 26 26"
   id="svg2"
   version="1.1"
   inkscape:version="0.91 r13725"
   sodipodi:docname="icon.svg">
  <metadata
     id="metadata10">
    <rdf:RDF>
      <cc:Work
         rdf:about="">
        <dc:format>image/svg+xml</dc:format>
        <dc:type
           rdf:resource="http://purl.org/dc/dcmitype/StillImage" />
        <dc:title />
      </cc:Work>
    </rdf:RDF>
  </metadata>
  <defs
     id="defs8" />
  <sodipodi:namedview
     pagecolor="#ffffff"
     bordercolor="#666666"
     borderopacity="1"
     objecttolerance="10"
     gridtolerance="10"
     guidetolerance="10"
     inkscape:pageopacity="0"
     inkscape:pageshadow="2"
     inkscape:window-width="1920"
     inkscape:window-height="1138"
     id="namedview6"
     showgrid="false"
     inkscape:zoom="18.153846"
     inkscape:cx="7.4364406"
     inkscape:cy="6.0617346"
     inkscape:window-x="-8"
     inkscape:window-y="-8"
     inkscape:window-maximized="1"
     inkscape:current-layer="svg2" />
  <path
     style="fill:#e3e3e3;fill-opacity:1;stroke:#f9f9f9;stroke-width:1;stroke-linecap:round;stroke-linejoin:round;stroke-miterlimit:4;stroke-dasharray:none;stroke-opacity:1"
     d="M 13 0.88085938 A 11.898305 11.898305 0 0 0 1.1015625 12.779297 A 11.898305 11.898305 0 0 0 13 24.677734 A 11.898305 11.898305 0 0 0 24.898438 12.779297 A 11.898305 11.898305 0 0 0 13 0.88085938 z M 13.259766 2.7167969 C 14.250149 2.7057669 15.225937 2.8058273 16.035156 3.015625 C 17.515332 3.399385 19.218276 4.252106 20.242188 5.125 L 20.724609 5.5371094 L 19.400391 5.5371094 C 18.112904 5.5371094 18.054736 5.5480596 17.345703 5.9160156 C 16.898267 6.1482206 16.308503 6.6026647 15.822266 7.0898438 C 14.535915 8.3786478 13.922601 9.4243127 11.683594 14.132812 C 11.276525 14.988861 10.820064 15.849006 10.669922 16.044922 C 10.077311 16.818216 9.5740013 16.519291 8.7226562 14.890625 C 7.2809653 12.132597 6.7422501 8.4603209 7.4550781 6.2480469 C 7.9472241 4.7206669 9.1726237 3.398944 10.394531 3.078125 C 11.264825 2.8496183 12.269382 2.7278239 13.259766 2.7167969 z M 13.560547 3.5859375 C 12.332066 3.5786375 11.069274 3.7392356 10.558594 4.0722656 C 9.9726892 4.4543526 10.361947 4.8652336 11.564453 5.1347656 C 11.811391 5.1900956 12.620516 5.2412038 13.361328 5.2460938 C 15.682134 5.2624138 17.060328 4.7387869 16.359375 4.1074219 C 15.983754 3.7691079 14.789029 3.5932775 13.560547 3.5859375 z M 6.8398438 4.7578125 L 6.5292969 5.2597656 C 5.7192649 6.5687066 5.423905 7.6983752 5.421875 9.5039062 C 5.419375 11.613631 5.9394066 13.729848 6.9785156 15.841797 C 7.7253516 17.359715 8.8184404 18.738219 9.6308594 19.1875 C 10.301189 19.558202 11.253945 19.20167 11.957031 18.316406 C 12.581667 17.529911 13.077481 16.615378 14.027344 14.501953 C 15.078703 12.162713 15.811969 10.719447 16.335938 9.9511719 C 18.242692 7.1554259 20.725386 7.0627774 22.046875 9.7402344 C 22.593891 10.848555 22.767073 11.873364 22.695312 13.582031 C 22.626232 15.226145 22.452158 15.977492 21.837891 17.287109 C 21.319845 18.391582 20.907984 19.00197 20.072266 19.900391 C 18.908928 21.15099 17.237 22.133247 15.548828 22.560547 C 15.085822 22.67774 14.2271 22.799641 13.640625 22.832031 C 8.7168584 23.103851 4.71048 20.200283 3.40625 15.416016 C 3.063951 14.160396 3.0305701 11.102306 3.3457031 9.9511719 C 3.8498521 8.1096059 5.0894006 6.1382905 6.3847656 5.1171875 L 6.8398438 4.7578125 z "
     id="path4135" />
</svg>
