<?xml version="1.0" encoding="UTF-8" standalone="no"?>
<svg
   xmlns:dc="http://purl.org/dc/elements/1.1/"
   xmlns:cc="http://creativecommons.org/ns#"
   xmlns:rdf="http://www.w3.org/1999/02/22-rdf-syntax-ns#"
   xmlns:svg="http://www.w3.org/2000/svg"
   xmlns="http://www.w3.org/2000/svg"
   xmlns:sodipodi="http://sodipodi.sourceforge.net/DTD/sodipodi-0.dtd"
   xmlns:inkscape="http://www.inkscape.org/namespaces/inkscape"
   width="26"
   height="26"
   viewBox="0 0 26 26"
   id="svg2"
   version="1.1"
   inkscape:version="0.91 r13725"
   sodipodi:docname="icon.svg">
  <metadata
     id="metadata10">
    <rdf:RDF>
      <cc:Work
         rdf:about="">
        <dc:format>image/svg+xml</dc:format>
        <dc:type
           rdf:resource="http://purl.org/dc/dcmitype/StillImage" />
        <dc:title />
      </cc:Work>
    </rdf:RDF>
  </metadata>
  <defs
     id="defs8" />
  <sodipodi:namedview
     pagecolor="#ffffff"
     bordercolor="#666666"
     borderopacity="1"
     objecttolerance="10"
     gridtolerance="10"
     guidetolerance="10"
     inkscape:pageopacity="0"
     inkscape:pageshadow="2"
     inkscape:window-width="1920"
     inkscape:window-height="1138"
     id="namedview6"
     showgrid="false"
     inkscape:zoom="12.836708"
     inkscape:cx="10.339776"
     inkscape:cy="8.2058145"
     inkscape:window-x="-8"
     inkscape:window-y="-8"
     inkscape:window-maximized="1"
     inkscape:current-layer="svg2" />
  <path
     id="path4164"
     style="fill:#e3e3e3;fill-opacity:1;stroke:#f9f9f9;stroke-opacity:1"
     d="m 15.023153,8.4352228 c 0.06029,-0.06029 0.07486,-0.194051 0.07486,-0.687325 0,-0.493274 -0.01457,-0.627036 -0.07486,-0.687325 -0.06583,-0.06583 -0.332629,-0.07486 -2.211689,-0.07486 -1.87906,0 -2.145862,0.009 -2.211689,0.07486 -0.109661,0.109661 -0.109661,1.264989 0,1.37465 0.06583,0.06583 0.332629,0.07486 2.211689,0.07486 1.87906,0 2.145862,-0.009 2.211689,-0.07486 z m -1.407675,4.4931322 c 0.385002,-0.427539 1.052195,-1.257611 1.052948,-1.31 6.82e-4,-0.04724 -0.963436,-0.05955 -4.664106,-0.05955 -4.1773599,0 -4.6727869,0.0078 -4.7398199,0.07486 -0.109661,0.109661 -0.109661,1.264989 0,1.37465 0.06688,0.06688 0.508223,0.07486 4.14321,0.07486 l 4.0683529,0 0.139415,-0.154818 z m -1.862508,3.144001 c 0.02684,-0.03275 0.123399,-0.241754 0.214565,-0.464454 0.09117,-0.222701 0.220599,-0.525879 0.287628,-0.67373 0.06703,-0.147852 0.108863,-0.281829 0.09296,-0.297728 -0.0159,-0.0159 -1.599376,-0.02891 -3.5188389,-0.02891 -3.10915,0 -3.498099,0.0082 -3.564789,0.07486 -0.109661,0.109661 -0.109661,1.264989 0,1.37465 0.06656,0.06656 0.427681,0.07486 3.257259,0.07486 2.4881329,0 3.1930509,-0.01299 3.2312109,-0.05955 z m -0.838348,2.441365 c 0.122637,-0.3537 0.22446,-0.691323 0.226273,-0.750273 l 0.0033,-0.107182 -2.9024169,0 c -2.575046,0 -2.91086,0.0084 -2.977274,0.07486 -0.109965,0.109965 -0.109633,1.265017 3.95e-4,1.375045 0.06709,0.06709 0.365432,0.07392 2.751001,0.06295 l 2.6757489,-0.0123 0.222977,-0.643091 z m 3.435594,-1.346922 c -0.136186,-0.110693 -0.248727,-0.241476 -0.250091,-0.290627 -0.003,-0.10989 0.286744,-0.845071 0.504619,-1.28018 0.108302,-0.216285 0.188103,-0.320667 0.243774,-0.318863 0.08713,0.0028 1.300829,0.982888 1.331349,1.07507 0.03295,0.09952 -1.322303,1.019557 -1.498154,1.017055 -0.04614,-6.57e-4 -0.19531,-0.09176 -0.331497,-0.202455 z m -1.685944,2.43581 c 0.762486,-0.408812 2.08592,-1.173242 2.782862,-1.607413 1.307802,-0.814716 1.065567,-0.558626 4.481773,-4.738102 1.688573,-2.065845 3.059599,-3.7807562 3.046724,-3.8109112 -0.01929,-0.04519 -1.580028,-1.325882 -2.500713,-2.052012 l -0.237104,-0.187 -0.113774,0.115545 c -0.06258,0.06355 -1.457135,1.755428 -3.099021,3.7597292 -2.965353,3.619898 -2.98709,3.647993 -3.261858,4.21582 -0.33055,0.683108 -0.684036,1.599031 -1.213373,3.144001 -0.451819,1.318719 -0.476365,1.405274 -0.398515,1.405274 0.03089,0 0.261744,-0.110219 0.512999,-0.244931 z m 5.233289,4.079296 c 0.164251,-0.03873 0.410166,-0.126926 0.546477,-0.196 0.318057,-0.161171 0.798076,-0.64119 0.959247,-0.959247 0.260074,-0.513231 0.26635,-0.600522 0.267114,-3.71521 4.29e-4,-1.814769 -0.01622,-2.870092 -0.04531,-2.870092 -0.02531,0 -0.430441,0.455523 -0.900292,1.012273 -0.469853,0.556751 -0.963618,1.118649 -1.097257,1.248665 l -0.24298,0.236391 0,1.427131 c 0,1.261112 -0.0092,1.437266 -0.07884,1.514246 -0.07567,0.08361 -0.34867,0.08712 -6.784782,0.08712 -6.0397299,0 -6.7133989,-0.0075 -6.7809839,-0.07504 -0.06763,-0.06763 -0.07385,-0.66841 -0.06295,-6.085548 l 0.01209,-6.0105082 1.691091,-0.02382 1.691092,-0.02382 0.26612,-0.124799 c 0.338266,-0.158632 0.593723,-0.414089 0.752354,-0.752355 l 0.124799,-0.26612 0.02382,-1.691091 0.02382,-1.691092 4.4860839,-0.01215 c 4.031306,-0.01092 4.493698,-0.0045 4.561184,0.06295 0.06543,0.06543 0.0751,0.283688 0.0751,1.695304 0,1.270046 0.0128,1.615939 0.05921,1.600468 0.03256,-0.01085 0.547036,-0.602202 1.143273,-1.314106 l 1.084066,-1.294372 -7.04e-4,-0.488136 c -0.0013,-0.869521 -0.213299,-1.435912 -0.717689,-1.91702 -0.311259,-0.29689 -0.743948,-0.522183 -1.145424,-0.5964 -0.173568,-0.03209 -2.113262,-0.04445 -5.643149,-0.03599 l -5.3786749,0.01291 -0.266665,0.135182 c -0.370684,0.187914 -4.811604,4.528405 -5.009065,4.895787 l -0.131,0.243731 0,6.9667882 c 0,4.539525 0.01694,7.056115 0.04862,7.223175 0.118364,0.624134 0.624516,1.304105 1.180434,1.585809 0.531751,0.269459 0.204768,0.2586 7.8933099,0.262136 6.103965,0.0028 7.139638,-0.0066 7.396462,-0.06715 z M 25.105447,5.851719 C 24.793524,4.694857 23.262256,4.005293 22.356321,4.613726 c -0.174818,0.117409 -1.187193,1.257333 -1.187193,1.336767 0,0.04935 2.673171,2.201777 2.756635,2.219632 0.130777,0.02798 1.075315,-1.147051 1.17167,-1.457586 0.05591,-0.143775 0.101075,-0.533617 0.008,-0.86082 z"
     inkscape:connector-curvature="0" />
</svg>
