<?xml version="1.0" encoding="UTF-8" standalone="no"?>
<svg
   xmlns:dc="http://purl.org/dc/elements/1.1/"
   xmlns:cc="http://creativecommons.org/ns#"
   xmlns:rdf="http://www.w3.org/1999/02/22-rdf-syntax-ns#"
   xmlns:svg="http://www.w3.org/2000/svg"
   xmlns="http://www.w3.org/2000/svg"
   xmlns:sodipodi="http://sodipodi.sourceforge.net/DTD/sodipodi-0.dtd"
   xmlns:inkscape="http://www.inkscape.org/namespaces/inkscape"
   width="26"
   height="26"
   viewBox="0 0 26 26"
   id="svg2"
   version="1.1"
   inkscape:version="0.91 r13725"
   sodipodi:docname="icon.svg">
  <metadata
     id="metadata10">
    <rdf:RDF>
      <cc:Work
         rdf:about="">
        <dc:format>image/svg+xml</dc:format>
        <dc:type
           rdf:resource="http://purl.org/dc/dcmitype/StillImage" />
        <dc:title />
      </cc:Work>
    </rdf:RDF>
  </metadata>
  <defs
     id="defs8" />
  <sodipodi:namedview
     pagecolor="#ffffff"
     bordercolor="#666666"
     borderopacity="1"
     objecttolerance="10"
     gridtolerance="10"
     guidetolerance="10"
     inkscape:pageopacity="0"
     inkscape:pageshadow="2"
     inkscape:window-width="1920"
     inkscape:window-height="1138"
     id="namedview6"
     showgrid="false"
     inkscape:zoom="12.836708"
     inkscape:cx="-2.1806876"
     inkscape:cy="-2.8093221"
     inkscape:window-x="-8"
     inkscape:window-y="-8"
     inkscape:window-maximized="1"
     inkscape:current-layer="svg2" />
  <path
     style="fill:#e3e3e3;fill-opacity:1;stroke:#f9f9f9;stroke-opacity:1"
     d="M 13.041016 3.5957031 C 9.8347708 3.5957031 9.727656 3.6007301 9.296875 3.7988281 C 8.876199 3.9922791 8.3946434 4.4382057 8.2246094 4.7929688 C 8.1214114 5.0082837 8.1072191 5.0447998 7.9707031 5.4179688 C 7.9188381 5.5597447 7.8605869 5.7144588 7.8417969 5.7617188 C 7.6793019 6.1704028 7.6269531 6.3166281 7.6269531 6.3613281 C 7.6269531 6.3899601 7.5921313 6.4451119 7.5507812 6.4824219 C 7.4858992 6.5409719 7.2614741 6.5525063 5.9082031 6.5664062 C 4.3438601 6.5824713 4.3385976 6.5829705 4.0253906 6.6953125 C 3.6413316 6.8330665 3.2147468 7.1060977 2.9179688 7.4023438 C 2.6851828 7.6347137 2.2988281 8.1905749 2.2988281 8.2949219 C 2.2988281 8.3282319 2.2832619 8.3648431 2.2636719 8.3769531 C 2.2440819 8.3890611 2.2035781 8.5114675 2.1738281 8.6484375 C 2.1440681 8.7854075 2.1016181 8.9316263 2.0800781 8.9726562 C 2.0242881 9.0789292 2.0281344 20.162756 2.0839844 20.197266 C 2.1076144 20.21187 2.1285622 20.276254 2.1289062 20.339844 C 2.1304402 20.623393 2.39452 21.181299 2.703125 21.554688 C 3.202783 22.159235 3.7357994 22.473426 4.4902344 22.603516 C 4.9868074 22.689176 21.028634 22.692822 21.546875 22.607422 C 22.244858 22.492408 22.67524 22.273978 23.160156 21.789062 C 23.587075 21.362145 23.953125 20.691192 23.953125 20.335938 C 23.953125 20.273924 23.972464 20.211866 23.996094 20.197266 C 24.051944 20.162751 24.0558 9.0789292 24 8.9726562 C 23.97845 8.9316252 23.936 8.7854075 23.90625 8.6484375 C 23.87649 8.5114675 23.835996 8.3890631 23.816406 8.3769531 C 23.796816 8.3648531 23.78125 8.3282319 23.78125 8.2949219 C 23.78125 8.1905749 23.394896 7.6347138 23.162109 7.4023438 C 22.865331 7.1060978 22.438747 6.8330665 22.054688 6.6953125 C 21.741481 6.5829745 21.736218 6.5824763 20.171875 6.5664062 C 18.818604 6.5525063 18.594177 6.5409719 18.529297 6.4824219 C 18.487947 6.4451019 18.452996 6.3930575 18.453125 6.3671875 C 18.453252 6.3413125 18.395229 6.1694561 18.324219 5.9863281 C 18.253203 5.8032011 18.13569 5.4937701 18.0625 5.2988281 C 17.989312 5.1038861 17.891853 4.8669944 17.845703 4.7714844 C 17.683882 4.4365544 17.192208 3.9869121 16.783203 3.7988281 C 16.352422 3.6007141 16.24726 3.5957031 13.041016 3.5957031 z M 13.001953 9.4492188 C 13.178788 9.4484923 13.353553 9.458275 13.523438 9.4765625 C 14.29991 9.5601465 14.653898 9.6609483 15.337891 9.9960938 C 16.318826 10.476737 17.153502 11.315282 17.642578 12.3125 C 17.881425 12.799504 17.915701 12.878782 17.957031 13.042969 C 17.971901 13.102043 18.010649 13.247087 18.042969 13.365234 C 18.075293 13.48338 18.127933 13.808293 18.158203 14.085938 C 18.242213 14.856554 18.120247 15.773148 17.841797 16.480469 C 17.323694 17.79656 16.063093 19.008562 14.736328 19.466797 C 14.416041 19.577416 14.261783 19.613681 13.8125 19.681641 C 13.004849 19.803809 12.134241 19.730674 11.386719 19.478516 C 10.196836 19.077139 9.0857824 18.118555 8.4589844 16.953125 C 8.0174964 16.132258 7.8173871 15.06039 7.9238281 14.083984 C 7.9539731 13.807492 8.0047794 13.48338 8.0371094 13.365234 C 8.0694394 13.247087 8.1081769 13.102039 8.1230469 13.042969 C 8.1637409 12.881303 8.1965199 12.803211 8.4355469 12.3125 C 9.0211729 11.110242 10.157343 10.12059 11.429688 9.7011719 C 11.922842 9.5386154 12.471448 9.4513981 13.001953 9.4492188 z "
     id="path4137" />
</svg>
