<?xml version="1.0" encoding="UTF-8" standalone="no"?>
<svg
   xmlns:dc="http://purl.org/dc/elements/1.1/"
   xmlns:cc="http://creativecommons.org/ns#"
   xmlns:rdf="http://www.w3.org/1999/02/22-rdf-syntax-ns#"
   xmlns:svg="http://www.w3.org/2000/svg"
   xmlns="http://www.w3.org/2000/svg"
   xmlns:sodipodi="http://sodipodi.sourceforge.net/DTD/sodipodi-0.dtd"
   xmlns:inkscape="http://www.inkscape.org/namespaces/inkscape"
   width="26"
   height="26"
   viewBox="0 0 26 26"
   id="svg2"
   version="1.1"
   inkscape:version="0.91 r13725"
   sodipodi:docname="object_mask_pass.svg">
  <metadata
     id="metadata10">
    <rdf:RDF>
      <cc:Work
         rdf:about="">
        <dc:format>image/svg+xml</dc:format>
        <dc:type
           rdf:resource="http://purl.org/dc/dcmitype/StillImage" />
        <dc:title></dc:title>
      </cc:Work>
    </rdf:RDF>
  </metadata>
  <defs
     id="defs8" />
  <sodipodi:namedview
     pagecolor="#ffffff"
     bordercolor="#666666"
     borderopacity="1"
     objecttolerance="10"
     gridtolerance="10"
     guidetolerance="10"
     inkscape:pageopacity="0"
     inkscape:pageshadow="2"
     inkscape:window-width="1920"
     inkscape:window-height="1138"
     id="namedview6"
     showgrid="false"
     inkscape:zoom="18.153846"
     inkscape:cx="-2.3686441"
     inkscape:cy="4.1864407"
     inkscape:window-x="-8"
     inkscape:window-y="-8"
     inkscape:window-maximized="1"
     inkscape:current-layer="svg2" />
  <path
     style="fill:none;fill-opacity:1;stroke:#f9f9f9;stroke-width:1;stroke-linecap:butt;stroke-linejoin:miter;stroke-miterlimit:4;stroke-dasharray:none;stroke-opacity:1"
     d="M 13.578059,2.6625066 A 4.3606677,4.3606677 0 0 0 9.2186837,7.0238347 4.3606677,4.3606677 0 0 0 9.3925119,8.2289128 7.3088222,7.2812796 0 0 1 10.025325,8.1976628 7.3088222,7.2812796 0 0 1 13.4472,9.0492253 5.8185897,5.901217 0 0 1 17.882747,6.3519597 4.3606677,4.3606677 0 0 0 13.578059,2.6625066 Z"
     id="path4141-0"
     inkscape:connector-curvature="0" />
  <path
     style="fill:#e3e3e3;fill-opacity:1;stroke:#f9f9f9;stroke-width:1;stroke-linecap:butt;stroke-linejoin:miter;stroke-miterlimit:4;stroke-dasharray:none;stroke-opacity:1"
     d="m 18.122981,6.4652409 a 5.8185897,5.901217 0 0 0 -4.714844,2.4550782 7.3088222,7.2812796 0 0 1 3.925782,6.4492189 7.3088222,7.2812796 0 0 1 -0.541016,2.734375 5.8185897,5.901217 0 0 0 1.330078,0.164063 5.8185897,5.901217 0 0 0 5.81836,-5.902344 5.8185897,5.901217 0 0 0 -5.81836,-5.9003911 z"
     id="path4141-0-6"
     inkscape:connector-curvature="0" />
  <ellipse
     style="fill:none;fill-opacity:1;stroke:#f9f9f9;stroke-width:1;stroke-linecap:butt;stroke-linejoin:miter;stroke-miterlimit:4;stroke-dasharray:none;stroke-opacity:1"
     id="path4141"
     cx="9.9703398"
     cy="15.506355"
     rx="7.3088222"
     ry="7.2812796" />
</svg>
