<?xml version="1.0" encoding="UTF-8" standalone="no"?>
<!-- Created with Inkscape (http://www.inkscape.org/) -->

<svg
   xmlns:dc="http://purl.org/dc/elements/1.1/"
   xmlns:cc="http://creativecommons.org/ns#"
   xmlns:rdf="http://www.w3.org/1999/02/22-rdf-syntax-ns#"
   xmlns:svg="http://www.w3.org/2000/svg"
   xmlns="http://www.w3.org/2000/svg"
   xmlns:xlink="http://www.w3.org/1999/xlink"
   xmlns:sodipodi="http://sodipodi.sourceforge.net/DTD/sodipodi-0.dtd"
   xmlns:inkscape="http://www.inkscape.org/namespaces/inkscape"
   width="140"
   height="27"
   viewBox="0 0 139.99999 27.000001"
   id="svg2"
   version="1.1"
   inkscape:version="0.91 r13725"
   sodipodi:docname="header.svg">
  <defs
     id="defs4">
    <linearGradient
       inkscape:collect="always"
       id="linearGradient4334">
      <stop
         style="stop-color:#f5f5f5;stop-opacity:1"
         offset="0"
         id="stop4336" />
      <stop
         style="stop-color:#bbbbbb;stop-opacity:1"
         offset="1"
         id="stop4338" />
    </linearGradient>
    <linearGradient
       inkscape:collect="always"
       xlink:href="#linearGradient4334"
       id="linearGradient4340"
       x1="-28.845861"
       y1="148.35832"
       x2="596.74402"
       y2="209.34691"
       gradientUnits="userSpaceOnUse"
       gradientTransform="matrix(0.13772591,0,0,0.13772591,-112.59814,922.12792)" />
  </defs>
  <sodipodi:namedview
     id="base"
     pagecolor="#ffffff"
     bordercolor="#666666"
     borderopacity="1.0"
     inkscape:pageopacity="0.0"
     inkscape:pageshadow="2"
     inkscape:zoom="7.9195959"
     inkscape:cx="49.198393"
     inkscape:cy="32.505511"
     inkscape:document-units="px"
     inkscape:current-layer="layer1"
     showgrid="false"
     fit-margin-top="0"
     fit-margin-left="0"
     fit-margin-right="0"
     fit-margin-bottom="0"
     inkscape:window-width="1920"
     inkscape:window-height="1138"
     inkscape:window-x="-8"
     inkscape:window-y="-8"
     inkscape:window-maximized="1"
     units="px" />
  <metadata
     id="metadata7">
    <rdf:RDF>
      <cc:Work
         rdf:about="">
        <dc:format>image/svg+xml</dc:format>
        <dc:type
           rdf:resource="http://purl.org/dc/dcmitype/StillImage" />
        <dc:title />
      </cc:Work>
    </rdf:RDF>
  </metadata>
  <g
     inkscape:label="Layer 1"
     inkscape:groupmode="layer"
     id="layer1"
     transform="translate(167.27831,-933.98774)">
    <path
       style="fill:url(#linearGradient4340);fill-opacity:1;stroke:none;stroke-opacity:1"
       d="m -111.38955,938.65127 c -2.11422,-8.7e-4 -4.22827,0.0494 -4.52182,0.15171 -0.6156,0.2146 -0.85856,0.97184 -0.47638,1.48459 0.26419,0.35445 0.31786,0.36543 2.11592,0.43255 l 1.84504,0.0688 0.0355,7.36081 c 0.0356,7.33491 0.0369,7.36187 0.3341,7.67821 0.38525,0.4101 1.07547,0.42347 1.43374,0.0277 0.24925,-0.27533 0.26599,-0.65915 0.3314,-7.67822 l 0.0689,-7.38851 1.83643,-0.0688 c 1.6125,-0.0604 1.86018,-0.10123 2.03146,-0.33597 0.4201,-0.5758 0.17261,-1.33923 -0.51136,-1.57766 -0.2942,-0.10256 -2.40866,-0.1544 -4.5229,-0.15521 z m 33.925235,0.13961 c -0.05394,1.4e-4 -0.111616,8.9e-4 -0.173228,8.9e-4 -0.355444,0 -0.605387,0.0925 -0.784125,0.28997 -0.250496,0.27672 -0.2641,0.64291 -0.301543,8.09141 -0.02157,4.29085 -0.0045,7.94243 0.03789,8.11479 0.04244,0.17237 0.199581,0.43576 0.349158,0.58533 0.259081,0.25909 0.473925,0.27196 4.541461,0.27196 4.085865,0 4.281345,-0.0118 4.544955,-0.27545 0.347973,-0.34798 0.353536,-0.97473 0.01239,-1.39636 -0.262674,-0.32462 -0.268825,-0.32522 -3.856329,-0.3661 l -3.593245,-0.0409 0,-7.33121 c 0,-7.72315 0.03102,-7.94673 -0.777402,-7.94453 z m 46.24309,0.003 c -0.297433,-0.004 -0.612456,0.10185 -0.799449,0.30854 -0.154204,0.17044 -0.558601,0.74372 -0.898719,1.27397 -1.636397,2.55112 -2.160888,3.37132 -2.663332,4.16513 -0.299243,0.47277 -0.585257,0.86009 -0.635636,0.86079 -0.05037,5.7e-4 -1.00126,-1.42537 -2.113236,-3.16877 -1.111968,-1.74341 -2.135828,-3.23085 -2.275161,-3.30542 -0.413018,-0.22104 -0.940148,-0.15547 -1.251105,0.15547 -0.452912,0.45293 -0.268201,1.01839 0.949829,2.90704 0.599913,0.93022 1.47876,2.31095 1.952908,3.06844 0.474148,0.7575 1.014133,1.60343 1.199995,1.87974 l 0.337854,0.50248 -2.349673,3.69816 c -1.55074,2.44061 -2.349941,3.82512 -2.350217,4.07152 -2.76e-4,0.20724 0.133441,0.49834 0.300732,0.65421 0.340894,0.31759 0.907313,0.36571 1.261054,0.10705 0.130757,-0.0956 1.121658,-1.56326 2.202004,-3.26157 1.080337,-1.69831 2.029194,-3.10948 2.108654,-3.13596 0.07943,-0.0265 1.026972,1.34321 2.105427,3.04396 1.078465,1.70075 2.073583,3.19469 2.211686,3.31968 0.605547,0.54801 1.802832,-0.14532 1.605907,-0.92992 -0.04627,-0.18439 -1.079882,-1.89665 -2.296958,-3.80522 -1.217068,-1.90855 -2.242185,-3.54692 -2.278121,-3.64059 -0.03593,-0.0937 0.48867,-1.03614 1.165823,-2.0944 1.139337,-1.78056 3.147055,-4.99149 3.382359,-5.40951 0.13435,-0.23867 -0.0099,-0.78056 -0.27922,-1.04988 -0.141464,-0.14148 -0.362067,-0.21162 -0.593405,-0.21494 z m -34.648019,0.006 c -1.518637,-0.003 -1.603499,0.0545 -1.802546,0.27438 -0.261372,0.28882 -0.269529,0.5485 -0.269529,8.39482 0,7.76903 0.01052,8.10886 0.262272,8.38702 0.254525,0.28126 0.373898,0.28985 3.994049,0.28783 3.923967,-0.003 4.206833,-0.0383 5.214218,-0.66469 0.567123,-0.3526 1.206877,-1.20273 1.456882,-1.93623 0.09161,-0.26878 0.159518,-1.30516 0.159518,-2.43334 0,-2.2501 -0.182813,-2.90014 -1.072759,-3.81624 -0.427959,-0.44053 -0.479702,-0.55637 -0.338131,-0.75749 0.569352,-0.80882 0.646984,-1.18248 0.650167,-3.12977 0.0036,-2.15027 -0.126817,-2.58312 -1.053119,-3.49695 -1.029557,-1.01568 -1.159485,-1.04318 -5.14724,-1.09051 -0.882217,-0.0105 -1.547566,-0.0179 -2.053782,-0.0188 z m -34.326026,8.9e-4 c -0.75682,0.003 -1.1468,0.061 -1.58466,0.20578 -1.42549,0.47131 -2.33805,1.27527 -2.96138,2.609 l -0.38601,0.82635 0,5.02699 c 0,4.93482 0.006,5.03964 0.31258,5.70487 0.61778,1.33959 1.73285,2.35548 3.05767,2.78545 0.26728,0.0868 1.21204,0.16422 2.099248,0.17216 1.327444,0.0119 1.750468,-0.0369 2.388683,-0.27572 1.171789,-0.43842 2.107918,-1.27354 2.677856,-2.38868 l 0.48204,-0.94311 0,-5.04098 0,-5.04098 -0.362875,-0.77391 c -0.491804,-1.04886 -1.184947,-1.77947 -2.217063,-2.33703 -0.830062,-0.44841 -0.930735,-0.46828 -2.611684,-0.5162 -0.349167,-0.01 -0.642138,-0.0151 -0.894405,-0.014 z m 13.867541,0.0603 c -1.871278,0 -2.044721,0.0228 -2.754517,0.36153 -0.908469,0.43356 -1.837538,1.33176 -2.281355,2.2055 -0.49804,0.98048 -0.608738,2.07965 -0.608738,6.04084 0,3.97039 0.110252,5.05915 0.613847,6.05295 0.41099,0.81105 1.428537,1.8283 2.106776,2.10651 0.282565,0.1159 0.668726,0.27563 0.858097,0.35481 0.189377,0.0792 1.08885,0.14819 1.998911,0.15332 2.23149,0.0126 2.877841,-0.20854 4.165402,-1.4246 0.699008,-0.6602 1.179953,-1.53502 1.392592,-2.5326 0.23121,-1.08473 0.206251,-8.70971 -0.03147,-9.59965 -0.41145,-1.5403 -1.370213,-2.73149 -2.705021,-3.36111 -0.706676,-0.33334 -0.891469,-0.3575 -2.754521,-0.3575 z m 37.185997,0.003 c -1.879528,-0.003 -2.043289,0.0189 -2.781689,0.36503 -0.944123,0.44255 -1.872012,1.33564 -2.294533,2.20845 -0.508783,1.05101 -0.598451,2.16339 -0.538533,6.69289 0.06071,4.58958 0.07043,4.654 0.889305,5.90258 0.557557,0.85012 1.198988,1.36382 2.235355,1.79017 0.647564,0.2664 1.019688,0.31654 2.366086,0.31929 0.878749,0.002 1.808404,-0.0639 2.065889,-0.14606 1.986001,-0.63366 3.198548,-2.04417 3.551558,-4.13151 0.08496,-0.50243 0.153321,-2.47662 0.153321,-4.42928 0,-4.97361 -0.247215,-6.03003 -1.731796,-7.39847 -1.098622,-1.01267 -1.622792,-1.16978 -3.914963,-1.17309 z m -0.0036,1.85634 c 1.587087,0 2.677997,0.58832 3.259429,1.75789 0.227976,0.45858 0.260614,0.94943 0.300741,4.50864 0.03085,2.73529 -0.0071,4.24022 -0.119712,4.77468 -0.192744,0.91335 -0.738381,1.64963 -1.516863,2.04679 -0.432648,0.22072 -0.811423,0.27141 -2.025807,0.27141 -1.41705,0 -1.526152,-0.0206 -2.133678,-0.40591 -1.194896,-0.75778 -1.204025,-0.80514 -1.204025,-6.20492 0,-4.40396 0.01667,-4.72654 0.272222,-5.22741 0.488367,-0.95727 1.662526,-1.52117 3.167693,-1.52117 z m -37.168506,0.0167 c 1.771067,-0.0193 2.947852,0.70422 3.354381,2.07315 0.302282,1.01789 0.309426,8.27565 0.0091,9.28682 -0.226739,0.7635 -0.872384,1.51246 -1.548613,1.79662 -0.280135,0.11772 -0.989508,0.18588 -1.928159,0.18561 -1.195853,-2.8e-4 -1.565303,-0.0494 -1.898039,-0.25233 -0.622151,-0.3794 -1.284685,-1.20008 -1.377795,-1.70678 -0.04554,-0.24779 -0.06402,-2.50033 -0.04116,-5.00574 l 0.0417,-4.55518 0.369599,-0.55843 c 0.498381,-0.75272 1.381425,-1.16818 2.656874,-1.25002 0.123301,-0.008 0.243995,-0.0124 0.36207,-0.0137 z m -13.298084,0.003 c 1.071478,0 2.139097,0.30373 2.705561,0.91109 0.730149,0.78286 0.727998,0.76698 0.773901,5.49639 0.0281,2.89516 -0.0091,4.6225 -0.107059,4.98638 -0.188357,0.6995 -0.711434,1.329 -1.393937,1.67719 -0.696525,0.35535 -3.265744,0.38203 -3.913354,0.0406 -0.63918,-0.33696 -1.04602,-0.75348 -1.32373,-1.3552 -0.23034,-0.49909 -0.25442,-0.96896 -0.25716,-4.99686 -0.003,-4.83251 0.0265,-5.05446 0.78708,-5.84851 0.58175,-0.60737 1.65722,-0.91109 2.728698,-0.91109 z m 36.9786,0.004 c 1.886045,0.004 2.324435,0.18675 2.763127,0.89656 0.252083,0.40788 0.279764,0.63587 0.238603,1.96098 -0.05153,1.65993 -0.17757,1.9386 -1.040745,2.30395 -0.614881,0.26026 -5.111962,0.26954 -5.211258,0.0108 -0.03735,-0.0972 -0.05091,-1.29029 -0.03013,-2.65123 l 0.03798,-2.4745 2.341338,-0.0387 c 0.332746,-0.005 0.631704,-0.009 0.901135,-0.008 z m -3.242472,7.48373 3.006294,0 3.006295,0 0.471286,0.5146 0.471286,0.51432 0,1.79931 c 0,2.00647 -0.132184,2.45978 -0.821791,2.81638 -0.545344,0.28201 -6.03403,0.31133 -6.140904,0.0328 -0.03718,-0.0968 -0.05046,-1.41383 -0.02987,-2.92668 l 0.03735,-2.75076 z"
       id="path4228"
       inkscape:connector-curvature="0" />
    <path
       style="fill:#2a7cbb;fill-opacity:1;stroke:none;stroke-width:1.875;stroke-linecap:round;stroke-linejoin:round;stroke-miterlimit:4;stroke-dasharray:none;stroke-opacity:1"
       d="m -147.24186,938.7586 c -1.32448,0.003 -2.56728,0.0533 -2.84813,0.15118 -0.2571,0.0896 -0.49721,0.29593 -0.57135,0.49091 -0.0733,0.1928 -0.12777,3.7048 -0.12777,8.22805 0,7.82019 0.003,7.89505 0.29052,8.26113 l 0.29051,0.3696 3.46252,-0.0412 c 3.42409,-0.0405 3.47104,-0.0449 4.24691,-0.40861 1.00082,-0.46912 1.95936,-1.42767 2.42849,-2.42849 l 0.36799,-0.78466 0,-5.02699 0,-5.027 -0.36664,-0.7817 c -0.74502,-1.58927 -2.07682,-2.58344 -3.834,-2.86186 -0.60818,-0.0964 -2.01457,-0.1427 -3.33905,-0.14041 z m -13.20743,0.002 c -1.32926,-5.8e-4 -2.57406,0.0454 -2.81827,0.13825 -0.75993,0.28893 -0.73421,-0.0117 -0.73893,8.61837 -0.004,7.89219 -2.8e-4,8.00903 0.2811,8.36685 l 0.28541,0.36287 3.26103,-0.002 c 3.33753,-0.002 3.75796,-0.0556 4.84623,-0.61842 0.49181,-0.25433 1.60283,-1.36561 1.85715,-1.85742 0.58871,-1.13844 0.61646,-1.41778 0.61224,-6.13014 -0.004,-4.86952 -0.0518,-5.30113 -0.70719,-6.41583 -0.74621,-1.26914 -1.9693,-2.06823 -3.55398,-2.32197 -0.58178,-0.0932 -1.99553,-0.14019 -3.32479,-0.14069 z m 14.66458,2.07688 c 1.85617,0.004 2.51152,0.20742 3.20402,0.87343 0.86634,0.83321 0.90163,1.08736 0.85406,6.17561 -0.0413,4.41139 -0.0434,4.43804 -0.37311,4.96836 -0.18228,0.29324 -0.61269,0.71158 -0.95654,0.92964 l -0.62515,0.39651 -2.52237,0 -2.5221,0 0.0358,-6.64528 0.0357,-6.64528 1.99702,-0.0431 c 0.31778,-0.007 0.60746,-0.0105 0.87263,-0.01 z m -13.2779,-6e-5 c 1.75105,0.002 2.46699,0.17957 3.0999,0.70127 1.00968,0.83226 1.03518,0.98161 1.0386,6.04407 0.003,4.42363 -0.002,4.49768 -0.31472,5.09586 -0.19501,0.37253 -0.57346,0.77975 -0.97969,1.05446 l -0.66173,0.44761 -2.53368,0 -2.53366,0 0.0358,-6.64528 0.0358,-6.64527 1.99702,-0.0433 c 0.29518,-0.006 0.56626,-0.01 0.8164,-0.009 z m 28.36884,7.83424 -0.33812,0.33812 c -0.18594,0.18593 -0.33787,0.43095 -0.33787,0.54445 0,0.40853 0.32221,0.90084 0.67411,1.02999 0.19737,0.0725 1.68051,0.13658 3.29601,0.14257 l 2.93716,0.0108 0.41668,-0.41667 c 0.33398,-0.33398 0.39909,-0.4911 0.32791,-0.79192 -0.19471,-0.82285 -0.34807,-0.85729 -3.81706,-0.85729 l -3.15882,0 z"
       id="rect4264"
       inkscape:connector-curvature="0" />
    <rect
       style="fill:#bdbdbd;fill-opacity:0;stroke:none;stroke-width:1.875;stroke-linecap:round;stroke-linejoin:round;stroke-miterlimit:4;stroke-dasharray:none;stroke-opacity:1"
       id="rect4344"
       width="1041.4673"
       height="194.95943"
       x="-167.27831"
       y="766.02832"
       ry="3.1398301" />
  </g>
</svg>
