<?xml version="1.0" encoding="UTF-8" standalone="no"?>
<svg
   xmlns:dc="http://purl.org/dc/elements/1.1/"
   xmlns:cc="http://creativecommons.org/ns#"
   xmlns:rdf="http://www.w3.org/1999/02/22-rdf-syntax-ns#"
   xmlns:svg="http://www.w3.org/2000/svg"
   xmlns="http://www.w3.org/2000/svg"
   xmlns:sodipodi="http://sodipodi.sourceforge.net/DTD/sodipodi-0.dtd"
   xmlns:inkscape="http://www.inkscape.org/namespaces/inkscape"
   width="26"
   height="26"
   viewBox="0 0 26 26"
   id="svg2"
   version="1.1"
   inkscape:version="0.91 r13725"
   sodipodi:docname="toolbox_icon.svg">
  <metadata
     id="metadata10">
    <rdf:RDF>
      <cc:Work
         rdf:about="">
        <dc:format>image/svg+xml</dc:format>
        <dc:type
           rdf:resource="http://purl.org/dc/dcmitype/StillImage" />
      </cc:Work>
    </rdf:RDF>
  </metadata>
  <defs
     id="defs8" />
  <sodipodi:namedview
     pagecolor="#ffffff"
     bordercolor="#666666"
     borderopacity="1"
     objecttolerance="10"
     gridtolerance="10"
     guidetolerance="10"
     inkscape:pageopacity="0"
     inkscape:pageshadow="2"
     inkscape:window-width="1459"
     inkscape:window-height="864"
     id="namedview6"
     showgrid="false"
     inkscape:zoom="9.0769231"
     inkscape:cx="-2.3686441"
     inkscape:cy="13"
     inkscape:window-x="0"
     inkscape:window-y="0"
     inkscape:window-maximized="0"
     inkscape:current-layer="svg2" />
  <path
     style="text-indent:0;text-align:start;line-height:normal;text-transform:none;block-progression:tb;-inkscape-font-specification:Bitstream Vera Sans;fill:#e3e3e3;fill-opacity:1;stroke:#f9f9f9;stroke-opacity:1;stroke-width:1;stroke-miterlimit:4;stroke-dasharray:none"
     d="M 11 0 C 8.8022637 0 7 1.8033398 7 4 L 7 5 L 9 5 L 9 4 C 9 2.8846602 9.8837363 2 11 2 L 15 2 C 16.116264 2 17 2.8846602 17 4 L 17 5 L 19 5 L 19 4 C 19 1.8033398 17.197736 0 15 0 L 11 0 z M 3 6 C 1.343 6 0 7.344 0 9 L 0 10 L 5 10 L 5 9.5 C 5 9.224 5.224 9 5.5 9 L 7.5 9 C 7.776 9 8 9.224 8 9.5 L 8 10 L 18 10 L 18 9.5 C 18 9.224 18.224 9 18.5 9 L 20.5 9 C 20.776 9 21 9.224 21 9.5 L 21 10 L 26 10 L 26 9 C 26 7.344 24.657 6 23 6 L 3 6 z M 0 11 L 0 19 C 0 20.656 1.343 22 3 22 L 23 22 C 24.657 22 26 20.656 26 19 L 26 11 L 21 11 L 21 12.5 C 21 12.776 20.776 13 20.5 13 L 18.5 13 C 18.224 13 18 12.776 18 12.5 L 18 11 L 8 11 L 8 12.5 C 8 12.776 7.776 13 7.5 13 L 5.5 13 C 5.224 13 5 12.776 5 12.5 L 5 11 L 0 11 z"
     overflow="visible"
     enable-background="accumulate"
     font-family="Bitstream Vera Sans"
     id="path4" />
</svg>
